<svg width="1080" height="1080" viewBox="0 0 1080 1080" fill="none" xmlns="http://www.w3.org/2000/svg">
<path d="M520.197 683.913L486.695 760.686C473.817 790.196 433.001 790.196 420.123 760.686L386.621 683.913C356.806 615.591 303.142 561.207 236.204 531.478L143.989 490.524C114.67 477.503 114.67 434.83 143.989 421.809L233.323 382.133C301.984 351.639 356.61 295.24 385.916 224.588L419.852 142.772C432.445 112.41 474.373 112.409 486.967 142.771L520.903 224.588C550.208 295.24 604.834 351.639 673.495 382.133L762.83 421.809C792.148 434.83 792.148 477.503 762.83 490.524L670.615 531.479C603.676 561.208 550.012 615.591 520.197 683.913Z" fill="url(#paint0_radial_2415_72)"/>
<path d="M831.539 925.99L822.117 947.601C815.221 963.417 793.331 963.417 786.435 947.601L777.013 925.99C760.219 887.471 729.967 856.799 692.22 840.02L663.192 827.116C647.496 820.139 647.496 797.31 663.192 790.333L690.598 778.15C729.315 760.94 760.108 729.133 776.615 689.302L786.29 665.955C793.033 649.683 815.519 649.683 822.262 665.955L831.938 689.302C848.444 729.133 879.237 760.94 917.954 778.15L945.36 790.333C961.056 797.31 961.056 820.139 945.36 827.116L916.332 840.02C878.585 856.799 848.333 887.471 831.539 925.99Z" fill="url(#paint1_radial_2415_72)"/>
<defs>
<radialGradient id="paint0_radial_2415_72" cx="0" cy="0" r="1" gradientUnits="userSpaceOnUse" gradientTransform="translate(641 488) rotate(78.8637) scale(517.749 517.749)">
<stop stop-color="#1BA1E3"/>
<stop offset="0.300221" stop-color="#5489D6"/>
<stop offset="0.545524" stop-color="#9B72CB"/>
<stop offset="0.825372" stop-color="#D96570"/>
<stop offset="1" stop-color="#F49C46"/>
</radialGradient>
<radialGradient id="paint1_radial_2415_72" cx="0" cy="0" r="1" gradientUnits="userSpaceOnUse" gradientTransform="translate(641 488) rotate(78.8637) scale(517.749 517.749)">
<stop stop-color="#1BA1E3"/>
<stop offset="0.300221" stop-color="#5489D6"/>
<stop offset="0.545524" stop-color="#9B72CB"/>
<stop offset="0.825372" stop-color="#D96570"/>
<stop offset="1" stop-color="#F49C46"/>
</radialGradient>
</defs>
</svg>
